<?xml version="1.0" encoding="UTF-8"?>
<svg version="1.1" xmlns="http://www.w3.org/2000/svg" width="500" height="500">
<path d="M0 0 C165 0 330 0 500 0 C500 165 500 330 500 500 C335 500 170 500 0 500 C0 335 0 170 0 0 Z " fill="#FEFEFE" transform="translate(0,0)"/>
<path d="M0 0 C1.62298853 1.37390306 3.22718847 2.77028839 4.8125 4.1875 C6.04419922 5.27804688 6.04419922 5.27804688 7.30078125 6.390625 C22.55198006 20.71678998 33.12114361 41.11569498 34.31640625 62.1953125 C34.61174187 75.63416917 33.36744058 86.91169496 27.8125 99.1875 C27.35496338 100.20481201 27.35496338 100.20481201 26.88818359 101.24267578 C24.70606099 105.98933146 22.29795531 110.59411237 19.8125 115.1875 C19.47379883 115.82864746 19.13509766 116.46979492 18.78613281 117.13037109 C6.17981459 140.96026324 -10.5971974 162.73515677 -27.75048828 183.44628906 C-29.83253132 185.9690772 -31.88156795 188.5184177 -33.9375 191.0625 C-37.53251504 195.45567435 -41.28015367 199.68596702 -45.1015625 203.8828125 C-47.86116097 206.93180706 -50.52821334 210.05090547 -53.1875 213.1875 C-57.02695182 211.66897523 -58.86241055 209.40947262 -61.375 206.1875 C-64.33319869 202.46682921 -67.33730962 198.86654362 -70.5625 195.375 C-75.56352854 189.87300487 -80.10598173 184.04875839 -84.64697266 178.16943359 C-86.26524783 176.08747514 -87.90228066 174.02136459 -89.54296875 171.95703125 C-114.79458286 140.0676886 -145.01860756 100.50336473 -141.9453125 57.82421875 C-139.09293187 34.45216113 -125.63607568 13.82027378 -107.4375 -0.625 C-75.43785543 -23.32096694 -31.57216421 -24.39220163 0 0 Z " fill="#59CEE1" transform="translate(296.1875,151.8125)"/>
<path d="M0 0 C3.76373813 2.75964276 6.22213527 5.41933614 8.6875 9.375 C9.26886719 10.29023437 9.85023438 11.20546875 10.44921875 12.1484375 C13.4350982 17.63884556 14.36302636 22.54765459 14.375 28.75 C14.40335937 30.06484375 14.43171875 31.3796875 14.4609375 32.734375 C14.21143863 37.88739135 12.10881396 42.35702491 10 47 C10.64960693 46.73783691 11.29921387 46.47567383 11.96850586 46.20556641 C14.95534772 45.004882 17.94634345 43.81489266 20.9375 42.625 C22.46987305 42.00625 22.46987305 42.00625 24.03320312 41.375 C29.98986355 39.01517287 35.7030433 37.19504288 42 36 C39.41885086 38.58114914 36.99267724 39.22983749 33.5625 40.5 C12.34396223 48.72091713 -6.00895438 61.02722776 -23 76 C-23.74765625 76.63679688 -24.4953125 77.27359375 -25.265625 77.9296875 C-35.11910374 86.34781697 -43.23513545 95.68112309 -51 106 C-51.42958008 106.56348145 -51.85916016 107.12696289 -52.30175781 107.70751953 C-78.34636872 142.02264776 -92.21308512 184.27482779 -92.25 227.25 C-92.25067474 227.95864197 -92.25134949 228.66728394 -92.25204468 229.3973999 C-92.23383607 241.48962044 -91.36451118 253.12857134 -89 265 C-88.75056641 266.31605225 -88.75056641 266.31605225 -88.49609375 267.65869141 C-78.62040766 318.89338509 -48.94001421 364.38072066 -6 394 C19.2536982 411.07888672 46.19336152 421.36303701 76 427 C77.92779297 427.37318359 77.92779297 427.37318359 79.89453125 427.75390625 C100.91180946 431.06754548 124.20759179 430.24377109 145 426 C145.85561523 425.82839355 146.71123047 425.65678711 147.59277344 425.47998047 C157.57725485 423.42088819 167.29584747 420.74951126 176.9375 417.4375 C178.17125366 417.01645996 178.17125366 417.01645996 179.42993164 416.58691406 C187.11096238 413.83564315 192.23753392 410.74627509 196.1875 403.375 C196.69893555 402.44131592 196.69893555 402.44131592 197.22070312 401.48876953 C202.13019142 392.27516988 203.48479056 384.44992985 203 374 C202.78085937 375.01578125 202.56171875 376.0315625 202.3359375 377.078125 C199.85344219 388.05005873 196.6664527 398.42161039 189 407 C188.34 407 187.68 407 187 407 C183.0935125 399.0242547 182.23112884 389.71541926 184.87890625 381.16015625 C187.40675437 375.87920622 190.91726413 371.32200516 194.3515625 366.60546875 C197.0335613 362.36638534 198.53853722 357.7747169 200 353 C207.24402055 356.09119842 211.00151637 364.06504556 214 371 C217.47372205 381.42116616 214.52373394 391.83102404 209.8671875 401.3046875 C209.58101563 401.86414063 209.29484375 402.42359375 209 403 C221.82991392 394.6044689 234.12940988 386.02084211 245.30859375 375.48046875 C248 373 248 373 250.703125 370.94921875 C255.43973733 366.92954264 256.67730959 361.52513801 257.23193359 355.46630859 C257.39163711 352.57905039 257.46620051 349.70391414 257.5 346.8125 C257.51844971 345.87422363 257.53689941 344.93594727 257.5559082 343.96923828 C257.49889569 337.58270803 256.25663634 333.49880461 253 328 C253.16081055 328.55469971 253.32162109 329.10939941 253.48730469 329.6809082 C254.46728669 334.11369347 254.22720517 338.66557598 254.25 343.1875 C254.2809375 344.69280273 254.2809375 344.69280273 254.3125 346.22851562 C254.34624335 352.71145616 253.49822685 358.0059512 251 364 C245.32293668 359.74220251 241.3318217 355.22988923 240 348 C239.49438528 339.82265428 239.81347312 332.67919386 242.33203125 324.8515625 C243.62675524 319.32437821 243.22231007 313.64008893 243 308 C253.71780986 311.29069055 262.00064711 318.09033289 267.4375 327.9375 C270.27721504 334.77698388 269.29969328 342.74908752 269 350 C285.09088559 328.39713019 309.5930343 292.42908519 307 264 C305.8009695 262.50931344 304.59419161 261.02217574 303.30859375 259.60546875 C297.69126413 252.71375988 297.84098972 244.72858865 298.54296875 236.3984375 C298.96292913 233.27565517 299.63341014 230.50302977 300.5625 227.5 C302.4363892 221.34163597 302.27399549 215.38308008 302 209 C314.47261325 214.77549579 322.31507923 219.7795807 327.40820312 233.05615234 C329.88702017 241.19820733 328.85917542 250.21452039 325.2734375 257.84375 C322.3380113 262.81416492 319.32795508 266.61160634 314 269 C314.144375 268.42636719 314.28875 267.85273438 314.4375 267.26171875 C317.12023712 254.98447041 318.480393 240.25389677 312 229 C312.16081055 229.71607422 312.32162109 230.43214844 312.48730469 231.16992188 C314.83471857 244.12764649 313.60974227 258.45845954 310 271 C309.51422232 273.12540795 309.06224898 275.25658869 308.61132812 277.38964844 C306.4964613 287.38218185 303.82964929 297.18900287 301 307 C301.45238037 306.59442871 301.90476074 306.18885742 302.37084961 305.77099609 C310.47471594 298.6402804 317.62813374 296.2542404 328.5390625 296.62109375 C339.27580246 297.79656077 347.4521897 302.89757868 354.5625 310.875 C356 313 356 313 356 314 C355.3915625 314.11214844 354.783125 314.22429687 354.15625 314.33984375 C346.91337484 315.96949066 341.10625821 318.92822418 334.8359375 322.77514648 C328.16473866 326.7827316 320.89323751 329.16525826 313 328 C303.17333333 325.17333333 303.17333333 325.17333333 300 322 C310.46220129 313.74932093 322.79099635 310.27057549 336 310 C325.40929408 306.46976469 313.72542653 309.65071968 304.06640625 314.4609375 C296.7598283 318.63915479 293.92648115 322.90211694 290.3125 330.4375 C281.91286232 347.49950552 271.07155942 363.15952532 258 377 C258.96679688 377.02578125 259.93359375 377.0515625 260.9296875 377.078125 C274.69625945 377.67785685 283.45197114 380.61564745 293 391 C294.6308184 393.30332084 295.79905836 395.43435195 297 398 C296.33097656 398.06316406 295.66195313 398.12632812 294.97265625 398.19140625 C285.87803374 399.35112321 278.1180919 402.56230084 269.82421875 406.27563477 C262.75002053 409.08467466 256.13657378 408.4747295 249.12109375 405.93359375 C246.1151952 404.61055553 243.63266691 402.95762411 241 401 C248.7921362 392.20565979 264.10743509 391.78691534 275 391 C263.88584645 387.29528215 250.68270164 390.26668717 240.5 395.21484375 C236.00388756 397.76609176 231.90247731 400.79800815 227.77270508 403.89135742 C220.1235573 409.61960768 212.33205567 414.53784295 203.88183594 419.00195312 C202.16303721 419.9135319 200.4595134 420.85376366 198.7578125 421.796875 C173.30726533 435.36220332 143.77790204 442.93534667 115 444 C114.28392578 444.02723145 113.56785156 444.05446289 112.83007812 444.08251953 C82.97641531 445.05760835 53.78565423 439.82897583 26 429 C24.95320068 428.59442871 24.95320068 428.59442871 23.88525391 428.18066406 C1.33646416 419.28312182 -19.46244084 405.6577485 -37 389 C-38.30723613 387.88960638 -39.61942184 386.78500182 -40.9375 385.6875 C-76.43462167 354.69103588 -96.68830935 308.72548539 -104 263 C-104.11859375 262.27248535 -104.2371875 261.5449707 -104.359375 260.79541016 C-109.57888672 227.57539285 -104.29251137 193.39166291 -93.55078125 161.8125 C-90.99623702 154.11197858 -89.60820608 146.87406068 -89.625 138.75 C-89.62661133 137.92733643 -89.62822266 137.10467285 -89.62988281 136.25708008 C-89.82792251 126.30364362 -92.25670139 118.16851504 -98 110 C-97.71125 110.95777344 -97.4225 111.91554688 -97.125 112.90234375 C-92.89765827 127.71779375 -92.66250031 141.15439093 -97 156 C-105.05724169 151.16565499 -109.59729897 144.0793311 -112 135 C-112.18750574 132.18465653 -112.28493712 129.49713034 -112.25 126.6875 C-112.24419922 125.54776733 -112.24419922 125.54776733 -112.23828125 124.38500977 C-112.16812395 119.84378626 -111.66307783 115.83116395 -110.44921875 111.44921875 C-109.79703274 107.89338718 -109.80926633 104.35271038 -109.8125 100.75 C-109.81185547 100.06349365 -109.81121094 99.3769873 -109.81054688 98.66967773 C-109.8500491 94.99642 -110.13465918 91.5721269 -111 88 C-99.2446309 91.27608647 -88.12452474 97.92102988 -81.46875 108.4140625 C-78.59593932 113.80893372 -77.06499969 118.99727446 -76 125 C-73.76271604 121.95334567 -71.54062115 118.89602689 -69.32714844 115.83203125 C-68.4011619 114.55377462 -67.47186082 113.27791539 -66.54003906 112.00390625 C-55.64049071 97.08215363 -46.91883044 84.2347607 -48 65 C-48.45142005 62.72240598 -48.45142005 62.72240598 -49 61 C-49.01417969 61.69222656 -49.02835938 62.38445312 -49.04296875 63.09765625 C-49.65101886 75.57090043 -53.21063573 87.12276489 -61 97 C-65.9532553 90.68702755 -67.60541683 84.65597731 -67.34375 76.71875 C-66.49927251 70.03970076 -62.89411033 64.82646176 -59.4375 59.1875 C-55.93345343 53.34491592 -54.2408553 47.6651656 -53 41 C-43.92293458 48.33147592 -37.11741437 55.51140683 -35.53515625 67.53125 C-35.28455472 70.68951591 -35.0992579 73.83367296 -35 77 C-34.01 76.19175781 -33.02 75.38351563 -32 74.55078125 C-30.666855 73.47112157 -29.33351096 72.39170764 -28 71.3125 C-27.35160156 70.78205078 -26.70320313 70.25160156 -26.03515625 69.70507812 C-22.73069209 67.03860457 -19.46940067 64.63338328 -15.796875 62.49609375 C-11.96873953 60.16618872 -9.74140463 57.51438509 -7.25 53.75 C-6.87294922 53.18152344 -6.49589844 52.61304688 -6.10742188 52.02734375 C-0.90091155 44.00479044 2.17857789 36.82196481 2.0625 27.1875 C2.05347656 26.21167969 2.04445313 25.23585938 2.03515625 24.23046875 C2.02355469 23.49441406 2.01195312 22.75835937 2 22 C1.86464844 22.77601562 1.72929687 23.55203125 1.58984375 24.3515625 C-0.69741216 35.82893046 -4.96014845 46.31853163 -13 55 C-13.66 55 -14.32 55 -15 55 C-18.74654204 46.57028041 -19.31746017 38.94311822 -16.0390625 30.2109375 C-13.70275388 25.23969435 -10.43262058 20.88926839 -7.125 16.52734375 C-3.02919518 11.00654017 -0.99120693 6.82831443 0 0 Z " fill="#34A645" transform="translate(143,28)"/>
<path d="M0 0 C1.18078125 0.01804687 2.3615625 0.03609375 3.578125 0.0546875 C48.33149072 2.04632943 90.18999576 26.68738836 120.00878906 58.75 C129.13172552 69.058605 136.6826289 80.7972148 143 93 C143.32806641 93.63164062 143.65613281 94.26328125 143.99414062 94.9140625 C155.29372234 116.95148764 162.19746393 141.15627456 163 166 C163.03996094 167.1034375 163.07992188 168.206875 163.12109375 169.34375 C163.39657809 184.51159348 161.53941942 199.28300121 158.5 214.125 C158.28641846 215.17486084 158.07283691 216.22472168 157.8527832 217.30639648 C157.53893677 218.76734741 157.53893677 218.76734741 157.21875 220.2578125 C157.03248047 221.1255127 156.84621094 221.99321289 156.65429688 222.88720703 C156 225 156 225 154 227 C154.14074951 226.03425049 154.28149902 225.06850098 154.42651367 224.07348633 C155.79566574 214.24209417 156.36671719 204.60837607 156.3125 194.6875 C156.31034485 193.96977417 156.3081897 193.25204834 156.30596924 192.51257324 C156.25131747 181.1203648 155.6896778 170.10670186 153 159 C152.80132324 158.17177734 152.60264648 157.34355469 152.39794922 156.49023438 C141.49178279 112.47343685 114.99573061 74.49411615 76.15234375 50.5859375 C61.52583366 41.91012984 45.47347922 35.2279059 29 31 C28.25637207 30.80390137 27.51274414 30.60780273 26.74658203 30.40576172 C2.04418091 24.1753974 -26.39192312 24.66711613 -51 31 C-51.73057617 31.17660156 -52.46115234 31.35320312 -53.21386719 31.53515625 C-97.19247849 42.30542841 -133.6999588 71.72959994 -157 110 C-171.8457523 135.76281162 -179.06230621 164.05811752 -179.25 193.6875 C-179.25942627 194.80390869 -179.26885254 195.92031738 -179.27856445 197.07055664 C-179.25200549 203.87716763 -178.63696856 210.33823367 -177.42871094 217.03833008 C-176.99023264 220.06747599 -176.92829679 222.94379289 -177 226 C-179.00175207 222.9973719 -179.53704035 221.24353619 -180.25390625 217.7734375 C-180.57584961 216.22462891 -180.57584961 216.22462891 -180.90429688 214.64453125 C-181.12150391 213.56558594 -181.33871094 212.48664063 -181.5625 211.375 C-181.78357422 210.31925781 -182.00464844 209.26351562 -182.23242188 208.17578125 C-191.17704676 164.56060129 -183.21699205 118.40309343 -159.22509766 80.77490234 C-157.23284034 77.78691339 -155.13836347 74.88459345 -153 72 C-152.58314941 71.42523926 -152.16629883 70.85047852 -151.73681641 70.25830078 C-124.85950602 33.4135178 -83.65151755 9.10858626 -38.81738281 1.63623047 C-25.92203318 -0.32585107 -13.0132016 -0.3015628 0 0 Z " fill="#51B947" transform="translate(261,80)"/>
<path d="M0 0 C1.42674294 -0.01429802 1.42674294 -0.01429802 2.88230896 -0.02888489 C4.42762047 -0.02751778 4.42762047 -0.02751778 6.00415039 -0.02612305 C7.05961563 -0.03040817 8.11508087 -0.0346933 9.20252991 -0.03910828 C11.43774701 -0.04485885 13.67298282 -0.04534651 15.90820312 -0.04101562 C19.3343897 -0.03785785 22.75971145 -0.06129885 26.18579102 -0.08666992 C28.35440971 -0.08894299 30.52303074 -0.08964638 32.69165039 -0.08862305 C33.71983383 -0.09783279 34.74801727 -0.10704254 35.80735779 -0.11653137 C37.23882896 -0.10718819 37.23882896 -0.10718819 38.69921875 -0.09765625 C39.53923935 -0.09828568 40.37925995 -0.0989151 41.24473572 -0.0995636 C43.92490983 0.36273039 44.81116011 1.10680267 46.41430664 3.2746582 C46.75488281 6.18554687 46.75488281 6.18554687 46.70727539 9.69262695 C46.69760742 10.94624023 46.68793945 12.19985352 46.67797852 13.49145508 C46.6528418 14.80178711 46.62770508 16.11211914 46.60180664 17.4621582 C46.58675631 18.79742984 46.57306851 20.13271757 46.56079102 21.46801758 C46.52538358 24.73730397 46.47599554 28.00577913 46.41430664 31.2746582 C47.24679932 31.25894775 48.07929199 31.2432373 48.93701172 31.22705078 C52.0287852 31.17589178 55.12034282 31.1382934 58.21240234 31.10986328 C60.20758365 31.08737487 62.20256877 31.04925622 64.19750977 31.01098633 C65.45112305 31.00131836 66.70473633 30.99165039 67.99633789 30.98168945 C69.15367432 30.965979 70.31101074 30.95026855 71.50341797 30.93408203 C74.41430664 31.2746582 74.41430664 31.2746582 76.07197571 32.50798035 C77.79227973 34.77211875 77.79425575 36.05567053 77.80249023 38.88208008 C77.81194672 39.81314575 77.8214032 40.74421143 77.83114624 41.70349121 C77.82507355 42.70666382 77.81900085 43.70983643 77.81274414 44.7434082 C77.81561432 45.77526245 77.8184845 46.8071167 77.82144165 47.87023926 C77.82348365 50.05241443 77.81794435 52.23460786 77.80541992 54.41674805 C77.78936869 57.76172721 77.80526455 61.10549799 77.82446289 64.45043945 C77.82248048 66.56893171 77.81863686 68.68742321 77.81274414 70.8059082 C77.81881683 71.80908081 77.82488953 72.81225342 77.83114624 73.8458252 C77.81696152 75.24242371 77.81696152 75.24242371 77.80249023 76.66723633 C77.80010345 77.48647583 77.79771667 78.30571533 77.79525757 79.14978027 C77.32104033 81.79488144 76.55174793 82.68438079 74.41430664 84.2746582 C71.50341797 84.61523438 71.50341797 84.61523438 67.99633789 84.56762695 C66.74272461 84.55795898 65.48911133 84.54829102 64.19750977 84.53833008 C62.23201172 84.500625 62.23201172 84.500625 60.22680664 84.4621582 C58.89153501 84.44710787 57.55624727 84.43342007 56.22094727 84.42114258 C52.95166088 84.38573514 49.68318571 84.3363471 46.41430664 84.2746582 C46.43001709 85.10715088 46.44572754 85.93964355 46.46191406 86.79736328 C46.51307306 89.88913676 46.55067145 92.98069438 46.57910156 96.07275391 C46.60158997 98.06793521 46.63970862 100.06292033 46.67797852 102.05786133 C46.68764648 103.31147461 46.69731445 104.56508789 46.70727539 105.85668945 C46.72298584 107.01402588 46.73869629 108.1713623 46.75488281 109.36376953 C46.41430664 112.2746582 46.41430664 112.2746582 45.1809845 113.93331909 C42.91426659 115.65431048 41.63548601 115.64914588 38.80688477 115.64697266 C37.41028625 115.65631584 37.41028625 115.65631584 35.98547363 115.66584778 C34.98230103 115.65663803 33.97912842 115.64742828 32.94555664 115.63793945 C31.91370239 115.63843796 30.88184814 115.63893646 29.81872559 115.63945007 C27.63653641 115.63710898 25.45434456 115.62737841 23.2722168 115.61083984 C19.92740799 115.5872506 16.58339621 115.59027839 13.23852539 115.59692383 C11.12003104 115.59134705 9.00154006 115.58423718 6.88305664 115.57543945 C5.87988403 115.57635086 4.87671143 115.57726227 3.84313965 115.57820129 C2.44654114 115.56390327 2.44654114 115.56390327 1.02172852 115.54931641 C-0.20713074 115.54240532 -0.20713074 115.54240532 -1.46081543 115.53535461 C-3.58569336 115.2746582 -3.58569336 115.2746582 -6.58569336 113.2746582 C-6.92626953 110.38549805 -6.92626953 110.38549805 -6.87866211 106.7355957 C-6.86899414 105.43364258 -6.85932617 104.13168945 -6.84936523 102.7902832 C-6.82429724 101.41006897 -6.79890238 100.02986064 -6.77319336 98.6496582 C-6.75814853 97.26165157 -6.74445977 95.87362953 -6.73217773 94.4855957 C-6.69671906 91.08156311 -6.64729634 87.67830198 -6.58569336 84.2746582 C-7.45371582 84.28513184 -8.32173828 84.29560547 -9.21606445 84.30639648 C-12.43268864 84.34045537 -15.64922103 84.36554587 -18.8659668 84.38452148 C-20.25890117 84.39458698 -21.65181438 84.40824054 -23.04467773 84.42553711 C-25.04523695 84.4497604 -27.04594951 84.46006634 -29.04663086 84.4699707 C-30.25109863 84.48044434 -31.45556641 84.49091797 -32.6965332 84.50170898 C-35.58569336 84.2746582 -35.58569336 84.2746582 -37.58569336 82.2746582 C-37.83966064 80.18737793 -37.83966064 80.18737793 -37.84448242 77.58129883 C-37.85078674 76.60688843 -37.85709106 75.63247803 -37.86358643 74.62854004 C-37.85953796 73.57332153 -37.8554895 72.51810303 -37.85131836 71.4309082 C-37.85323181 70.35087524 -37.85514526 69.27084229 -37.8571167 68.15808105 C-37.85847943 65.87157967 -37.85477688 63.58507056 -37.84643555 61.29858398 C-37.83573748 57.78913066 -37.84632809 54.28018927 -37.85913086 50.77075195 C-37.85780928 48.5533029 -37.85524692 46.33585417 -37.85131836 44.1184082 C-37.85536682 43.0631897 -37.85941528 42.00797119 -37.86358643 40.92077637 C-37.8572821 39.94636597 -37.85097778 38.97195557 -37.84448242 37.96801758 C-37.84289124 37.10801147 -37.84130005 36.24800537 -37.83966064 35.36193848 C-37.58569336 33.2746582 -37.58569336 33.2746582 -35.58569336 31.2746582 C-32.6965332 31.04760742 -32.6965332 31.04760742 -29.04663086 31.0793457 C-27.09370117 31.08901367 -27.09370117 31.08901367 -25.10131836 31.09887695 C-23.7211074 31.11558891 -22.34089907 31.13251882 -20.96069336 31.1496582 C-19.57267884 31.15968814 -18.18465747 31.16881397 -16.79663086 31.17700195 C-13.3928131 31.20063958 -9.9893383 31.23358953 -6.58569336 31.2746582 C-6.59616699 30.40663574 -6.60664063 29.53861328 -6.61743164 28.64428711 C-6.65149052 25.42766292 -6.67658103 22.21113053 -6.69555664 18.99438477 C-6.70562213 17.60145039 -6.7192757 16.20853718 -6.73657227 14.81567383 C-6.76079556 12.81511461 -6.7711015 10.81440205 -6.78100586 8.8137207 C-6.79147949 7.60925293 -6.80195313 6.40478516 -6.81274414 5.16381836 C-6.43027153 0.29695726 -4.36016204 0.02393753 0 0 Z " fill="#4EC9DE" transform="translate(222.585693359375,164.725341796875)"/>
<path d="M0 0 C0.96196289 0.39469482 0.96196289 0.39469482 1.94335938 0.79736328 C19.35503199 8.15775216 33.59848749 21.21122668 40.9375 38.97265625 C47.85336899 58.67779769 48.20373458 77.33851441 39.375 96.6875 C30.04660124 116.03696836 13.82526995 127.75743505 -6 135 C-25.19238373 140.28769756 -44.13502631 136.72006197 -61.19628906 127.08496094 C-65.5133421 124.48818458 -69.28828539 121.38685318 -73 118 C-73.93005859 117.20722656 -73.93005859 117.20722656 -74.87890625 116.3984375 C-82.79155977 109.2115531 -87.68151163 99.5450909 -91.4375 89.6875 C-91.68443604 89.04240479 -91.93137207 88.39730957 -92.18579102 87.73266602 C-98.15088822 71.12092222 -95.90380071 51.17115439 -88.77734375 35.40234375 C-86.0420571 30.1662236 -82.68057036 25.60265009 -79 21 C-78.2575 19.96875 -77.515 18.9375 -76.75 17.875 C-57.28083807 -2.47912384 -26.46093448 -10.86129055 0 0 Z M-51 11 C-51.27891147 14.01263725 -51.27891147 14.01263725 -51.1953125 17.5390625 C-51.18886719 18.84101563 -51.18242187 20.14296875 -51.17578125 21.484375 C-51.15906929 22.86458595 -51.14213939 24.24479429 -51.125 25.625 C-51.11497006 27.01301452 -51.10584423 28.40103589 -51.09765625 29.7890625 C-51.07401863 33.19288026 -51.04106867 36.59635506 -51 40 C-51.86802246 39.98952637 -52.73604492 39.97905273 -53.63037109 39.96826172 C-56.84699528 39.93420284 -60.06352767 39.90911233 -63.28027344 39.89013672 C-64.67320781 39.88007123 -66.06612102 39.86641766 -67.45898438 39.84912109 C-69.4595436 39.8248978 -71.46025615 39.81459186 -73.4609375 39.8046875 C-74.66540527 39.79421387 -75.86987305 39.78374023 -77.11083984 39.77294922 C-80.12841495 39.69539186 -80.12841495 39.69539186 -82 42 C-82.30578066 44.16800257 -82.30578066 44.16800257 -82.25878906 46.69335938 C-82.26509338 47.66776978 -82.27139771 48.64218018 -82.27789307 49.64611816 C-82.2738446 50.70133667 -82.26979614 51.75655518 -82.265625 52.84375 C-82.26753845 53.92378296 -82.2694519 55.00381592 -82.27142334 56.11657715 C-82.27278607 58.40307854 -82.26908352 60.68958764 -82.26074219 62.97607422 C-82.25004412 66.48552755 -82.26063473 69.99446893 -82.2734375 73.50390625 C-82.27211592 75.7213553 -82.26955356 77.93880403 -82.265625 80.15625 C-82.26967346 81.21146851 -82.27372192 82.26668701 -82.27789307 83.35388184 C-82.27158875 84.32829224 -82.26528442 85.30270264 -82.25878906 86.30664062 C-82.25719788 87.16664673 -82.25560669 88.02665283 -82.25396729 88.91271973 C-82.19086487 91.22015082 -82.19086487 91.22015082 -80 93 C-76.98736275 93.27891147 -76.98736275 93.27891147 -73.4609375 93.1953125 C-72.15898437 93.18886719 -70.85703125 93.18242187 -69.515625 93.17578125 C-68.13541405 93.15906929 -66.75520571 93.14213939 -65.375 93.125 C-63.98698548 93.11497006 -62.59896411 93.10584423 -61.2109375 93.09765625 C-57.80711974 93.07401863 -54.40364494 93.04106867 -51 93 C-51.01571045 93.86802246 -51.0314209 94.73604492 -51.04760742 95.63037109 C-51.09869555 98.84698287 -51.13633027 102.06338813 -51.16479492 105.28027344 C-51.17989358 106.67324622 -51.20037444 108.06617138 -51.22631836 109.45898438 C-51.26265122 111.45942885 -51.27811192 113.46021827 -51.29296875 115.4609375 C-51.3086792 116.66540527 -51.32438965 117.86987305 -51.34057617 119.11083984 C-51.22818604 120.0642627 -51.1157959 121.01768555 -51 122 C-47.82643377 124.11571082 -47.02784384 124.25421352 -43.39257812 124.2746582 C-41.99597961 124.28895622 -41.99597961 124.28895622 -40.57116699 124.30354309 C-39.56799438 124.30263168 -38.56482178 124.30172028 -37.53125 124.30078125 C-35.98346863 124.30720894 -35.98346863 124.30720894 -34.40441895 124.31376648 C-32.22225682 124.31951086 -30.04007554 124.32000926 -27.85791016 124.31567383 C-24.51301563 124.3125123 -21.16900398 124.33597766 -17.82421875 124.36132812 C-15.70573029 124.36360088 -13.58723944 124.36430472 -11.46875 124.36328125 C-10.46557739 124.372491 -9.46240479 124.38170074 -8.42883301 124.39118958 C-7.0322345 124.38184639 -7.0322345 124.38184639 -5.60742188 124.37231445 C-4.78818237 124.37294388 -3.96894287 124.3735733 -3.12487793 124.3742218 C-0.47624757 123.90775961 0.4092795 123.13931606 2 121 C2.41513763 117.9969171 2.41513763 117.9969171 2.29296875 114.58203125 C2.28330078 113.32841797 2.27363281 112.07480469 2.26367188 110.78320312 C2.23853516 109.47287109 2.21339844 108.16253906 2.1875 106.8125 C2.17244967 105.47722837 2.15876187 104.14194063 2.14648438 102.80664062 C2.11107694 99.53735424 2.0616889 96.26887907 2 93 C2.83249268 93.01571045 3.66498535 93.0314209 4.52270508 93.04760742 C7.61447856 93.09876642 10.70603618 93.1363648 13.7980957 93.16479492 C15.79327701 93.18728333 17.78826213 93.22540198 19.78320312 93.26367188 C21.03681641 93.27333984 22.29042969 93.28300781 23.58203125 93.29296875 C24.73936768 93.3086792 25.8967041 93.32438965 27.08911133 93.34057617 C29.95013437 93.25155284 29.95013437 93.25155284 31.65766907 91.76667786 C33.37797309 89.50253945 33.37994911 88.21898767 33.38818359 85.39257812 C33.40236832 83.99597961 33.40236832 83.99597961 33.4168396 82.57116699 C33.41076691 81.56799438 33.40469421 80.56482178 33.3984375 79.53125 C33.40130768 78.49939575 33.40417786 77.4675415 33.40713501 76.40441895 C33.40917701 74.22224377 33.40363771 72.04005035 33.39111328 69.85791016 C33.37506205 66.512931 33.39095791 63.16916021 33.41015625 59.82421875 C33.40817384 57.70572649 33.40433022 55.58723499 33.3984375 53.46875 C33.40451019 52.46557739 33.41058289 51.46240479 33.4168396 50.42883301 C33.40738312 49.49776733 33.39792664 48.56670166 33.38818359 47.60742188 C33.38460342 46.37856262 33.38460342 46.37856262 33.38095093 45.12487793 C32.90673369 42.47977676 32.13744129 41.59027741 30 40 C26.9969171 39.58486237 26.9969171 39.58486237 23.58203125 39.70703125 C22.32841797 39.71669922 21.07480469 39.72636719 19.78320312 39.73632812 C17.81770508 39.7740332 17.81770508 39.7740332 15.8125 39.8125 C14.47722837 39.82755033 13.14194063 39.84123813 11.80664062 39.85351562 C8.53735424 39.88892306 5.26887907 39.9383111 2 40 C2.01571045 39.16750732 2.0314209 38.33501465 2.04760742 37.47729492 C2.09876642 34.38552144 2.1363648 31.29396382 2.16479492 28.2019043 C2.18728333 26.20672299 2.22540198 24.21173787 2.26367188 22.21679688 C2.27333984 20.96318359 2.28300781 19.70957031 2.29296875 18.41796875 C2.3086792 17.26063232 2.32438965 16.1032959 2.34057617 14.91088867 C2.25047576 12.05124246 2.25047576 12.05124246 0.77340698 10.34133911 C-1.52333198 8.60417115 -2.85198357 8.62554023 -5.71508789 8.62768555 C-6.66940201 8.62145676 -7.62371613 8.61522797 -8.60694885 8.60881042 C-9.63513229 8.61802017 -10.66331573 8.62722992 -11.72265625 8.63671875 C-12.77907822 8.63622025 -13.83550018 8.63572174 -14.92393494 8.63520813 C-17.15739828 8.63754917 -19.39086424 8.64727939 -21.62426758 8.66381836 C-25.05248461 8.68743102 -28.47992535 8.68437689 -31.90820312 8.67773438 C-34.07552549 8.68331027 -36.24284457 8.69041959 -38.41015625 8.69921875 C-39.95546776 8.69785164 -39.95546776 8.69785164 -41.53199768 8.69645691 C-42.95874062 8.71075493 -42.95874062 8.71075493 -44.41430664 8.7253418 C-45.67314415 8.73225288 -45.67314415 8.73225288 -46.95741272 8.73930359 C-49.2249374 8.81700754 -49.2249374 8.81700754 -51 11 Z " fill="#50C8DD" transform="translate(267,156)"/>
<path d="M0 0 C0.66386719 0.92167969 1.32773438 1.84335937 2.01171875 2.79296875 C5.15112139 6.95562379 8.34751688 10.89899045 11.88671875 14.73046875 C15.57955229 18.74592114 19.17970255 22.81262061 22.69921875 26.98046875 C31.90371217 25.91841182 37.97015029 15.63946871 43.36328125 8.8515625 C44.51957031 7.43037109 44.51957031 7.43037109 45.69921875 5.98046875 C46.18310059 5.28211914 46.66698242 4.58376953 47.16552734 3.86425781 C51.31531562 -1.67938046 51.31531562 -1.67938046 55.04833984 -2.59692383 C57.77837075 -2.65627233 60.36186446 -2.45893174 63.07421875 -2.14453125 C64.52852295 -2.02440674 64.52852295 -2.02440674 66.01220703 -1.90185547 C68.91388829 -1.65030324 71.80452516 -1.34071214 74.69921875 -1.01953125 C76.25112731 -0.87184963 77.80319842 -0.72586049 79.35546875 -0.58203125 C96.08730184 1.0780014 114.8973856 3.53183206 129.69921875 11.98046875 C130.57421875 14.16796875 130.57421875 14.16796875 130.69921875 15.98046875 C114.69289565 25.68314337 94.96084045 27.83540667 76.69921875 29.98046875 C75.98796844 30.06588928 75.27671814 30.15130981 74.54391479 30.23931885 C59.06515057 32.05188593 43.70840254 32.29870095 28.13671875 32.23046875 C26.90142426 32.22769928 25.66612976 32.22492981 24.3934021 32.22207642 C6.76265432 32.1756643 -10.76789236 32.00776688 -28.30078125 29.98046875 C-29.25758789 29.87331543 -30.21439453 29.76616211 -31.20019531 29.65576172 C-42.54200164 28.33913094 -53.36120716 26.24916077 -64.30078125 22.98046875 C-65.26757812 22.72265625 -66.234375 22.46484375 -67.23046875 22.19921875 C-72.30003247 20.8152429 -76.11427759 19.17543207 -80.30078125 15.98046875 C-80.05859375 14.13671875 -80.05859375 14.13671875 -79.30078125 11.98046875 C-67.48540294 2.94826844 -11.84476457 -10.39684768 0 0 Z " fill="#6BDCE9" transform="translate(217.30078125,349.01953125)"/>
<path d="M0 0 C0.67675781 0.46921875 1.35351562 0.9384375 2.05078125 1.421875 C16.4382403 12.54726099 25.88785241 31.40026881 29 49 C29.19335938 50.051875 29.19335938 50.051875 29.390625 51.125 C32.48234168 71.30251935 26.55854211 92.39139807 15 109 C2.05452385 125.44564465 -16.02462679 137.8811487 -37 141 C-62.27740399 142.47695986 -82.98533174 139.28773422 -102.51171875 122.3359375 C-119.97287638 105.94383033 -128.6182576 86.66429959 -129.45776367 62.8894043 C-129.76833449 42.10270203 -122.87703768 24.63191599 -109 9 C-108.41992188 8.32582031 -107.83984375 7.65164062 -107.2421875 6.95703125 C-78.65850751 -24.03955679 -32.78007726 -23.09977561 0 0 Z M-104.34375 16.66015625 C-117.84772692 34.2932338 -122.18070046 54.17366591 -119.4375 76 C-117.05775719 88.23154522 -110.98353136 99.54377839 -103 109 C-102.11248047 110.05574219 -102.11248047 110.05574219 -101.20703125 111.1328125 C-89.52856155 123.83221452 -72.03020985 132.34744707 -54.84375 133.2890625 C-33.28637106 133.95442875 -13.98505341 126.12803204 1.72265625 111.36328125 C14.87461757 97.7150195 21.58352404 78.89545575 21.41992188 60.10620117 C20.76605052 42.69687645 13.6115488 26.88626972 2 14 C1.44699219 13.36578125 0.89398438 12.7315625 0.32421875 12.078125 C-10.79735139 0.08063168 -27.94707579 -7.50717226 -44.16015625 -8.3203125 C-67.77290609 -9.02785658 -88.5436635 -1.27294193 -104.34375 16.66015625 Z " fill="#FAFDFE" transform="translate(292,160)"/>
<path d="M0 0 C1.42674294 -0.01429802 1.42674294 -0.01429802 2.88230896 -0.02888489 C4.42762047 -0.02751778 4.42762047 -0.02751778 6.00415039 -0.02612305 C7.05961563 -0.03040817 8.11508087 -0.0346933 9.20252991 -0.03910828 C11.43774701 -0.04485885 13.67298282 -0.04534651 15.90820312 -0.04101562 C19.3343897 -0.03785785 22.75971145 -0.06129885 26.18579102 -0.08666992 C28.35440971 -0.08894299 30.52303074 -0.08964638 32.69165039 -0.08862305 C33.71983383 -0.09783279 34.74801727 -0.10704254 35.80735779 -0.11653137 C37.23882896 -0.10718819 37.23882896 -0.10718819 38.69921875 -0.09765625 C39.53923935 -0.09828568 40.37925995 -0.0989151 41.24473572 -0.0995636 C43.92490983 0.36273039 44.81116011 1.10680267 46.41430664 3.2746582 C46.75488281 6.18554687 46.75488281 6.18554687 46.70727539 9.69262695 C46.69760742 10.94624023 46.68793945 12.19985352 46.67797852 13.49145508 C46.6528418 14.80178711 46.62770508 16.11211914 46.60180664 17.4621582 C46.58675631 18.79742984 46.57306851 20.13271757 46.56079102 21.46801758 C46.52538358 24.73730397 46.47599554 28.00577913 46.41430664 31.2746582 C47.24679932 31.25894775 48.07929199 31.2432373 48.93701172 31.22705078 C52.0287852 31.17589178 55.12034282 31.1382934 58.21240234 31.10986328 C60.20758365 31.08737487 62.20256877 31.04925622 64.19750977 31.01098633 C65.45112305 31.00131836 66.70473633 30.99165039 67.99633789 30.98168945 C69.15367432 30.965979 70.31101074 30.95026855 71.50341797 30.93408203 C74.41430664 31.2746582 74.41430664 31.2746582 76.07197571 32.50798035 C77.79227973 34.77211875 77.79425575 36.05567053 77.80249023 38.88208008 C77.81194672 39.81314575 77.8214032 40.74421143 77.83114624 41.70349121 C77.82507355 42.70666382 77.81900085 43.70983643 77.81274414 44.7434082 C77.81561432 45.77526245 77.8184845 46.8071167 77.82144165 47.87023926 C77.82348365 50.05241443 77.81794435 52.23460786 77.80541992 54.41674805 C77.78936869 57.76172721 77.80526455 61.10549799 77.82446289 64.45043945 C77.82248048 66.56893171 77.81863686 68.68742321 77.81274414 70.8059082 C77.81881683 71.80908081 77.82488953 72.81225342 77.83114624 73.8458252 C77.81696152 75.24242371 77.81696152 75.24242371 77.80249023 76.66723633 C77.80010345 77.48647583 77.79771667 78.30571533 77.79525757 79.14978027 C77.32104033 81.79488144 76.55174793 82.68438079 74.41430664 84.2746582 C71.50341797 84.61523438 71.50341797 84.61523438 67.99633789 84.56762695 C66.74272461 84.55795898 65.48911133 84.54829102 64.19750977 84.53833008 C62.23201172 84.500625 62.23201172 84.500625 60.22680664 84.4621582 C58.89153501 84.44710787 57.55624727 84.43342007 56.22094727 84.42114258 C52.95166088 84.38573514 49.68318571 84.3363471 46.41430664 84.2746582 C46.43001709 85.10715088 46.44572754 85.93964355 46.46191406 86.79736328 C46.51307306 89.88913676 46.55067145 92.98069438 46.57910156 96.07275391 C46.60158997 98.06793521 46.63970862 100.06292033 46.67797852 102.05786133 C46.68764648 103.31147461 46.69731445 104.56508789 46.70727539 105.85668945 C46.72298584 107.01402588 46.73869629 108.1713623 46.75488281 109.36376953 C46.41430664 112.2746582 46.41430664 112.2746582 45.1809845 113.93331909 C42.91426659 115.65431048 41.63548601 115.64914588 38.80688477 115.64697266 C37.41028625 115.65631584 37.41028625 115.65631584 35.98547363 115.66584778 C34.98230103 115.65663803 33.97912842 115.64742828 32.94555664 115.63793945 C31.91370239 115.63843796 30.88184814 115.63893646 29.81872559 115.63945007 C27.63653641 115.63710898 25.45434456 115.62737841 23.2722168 115.61083984 C19.92740799 115.5872506 16.58339621 115.59027839 13.23852539 115.59692383 C11.12003104 115.59134705 9.00154006 115.58423718 6.88305664 115.57543945 C5.87988403 115.57635086 4.87671143 115.57726227 3.84313965 115.57820129 C2.44654114 115.56390327 2.44654114 115.56390327 1.02172852 115.54931641 C-0.20713074 115.54240532 -0.20713074 115.54240532 -1.46081543 115.53535461 C-3.58569336 115.2746582 -3.58569336 115.2746582 -6.58569336 113.2746582 C-6.92626953 110.38549805 -6.92626953 110.38549805 -6.87866211 106.7355957 C-6.86899414 105.43364258 -6.85932617 104.13168945 -6.84936523 102.7902832 C-6.82429724 101.41006897 -6.79890238 100.02986064 -6.77319336 98.6496582 C-6.75814853 97.26165157 -6.74445977 95.87362953 -6.73217773 94.4855957 C-6.69671906 91.08156311 -6.64729634 87.67830198 -6.58569336 84.2746582 C-7.45371582 84.28513184 -8.32173828 84.29560547 -9.21606445 84.30639648 C-12.43268864 84.34045537 -15.64922103 84.36554587 -18.8659668 84.38452148 C-20.25890117 84.39458698 -21.65181438 84.40824054 -23.04467773 84.42553711 C-25.04523695 84.4497604 -27.04594951 84.46006634 -29.04663086 84.4699707 C-30.25109863 84.48044434 -31.45556641 84.49091797 -32.6965332 84.50170898 C-35.58569336 84.2746582 -35.58569336 84.2746582 -37.58569336 82.2746582 C-37.83966064 80.18737793 -37.83966064 80.18737793 -37.84448242 77.58129883 C-37.85078674 76.60688843 -37.85709106 75.63247803 -37.86358643 74.62854004 C-37.85953796 73.57332153 -37.8554895 72.51810303 -37.85131836 71.4309082 C-37.85323181 70.35087524 -37.85514526 69.27084229 -37.8571167 68.15808105 C-37.85847943 65.87157967 -37.85477688 63.58507056 -37.84643555 61.29858398 C-37.83573748 57.78913066 -37.84632809 54.28018927 -37.85913086 50.77075195 C-37.85780928 48.5533029 -37.85524692 46.33585417 -37.85131836 44.1184082 C-37.85536682 43.0631897 -37.85941528 42.00797119 -37.86358643 40.92077637 C-37.8572821 39.94636597 -37.85097778 38.97195557 -37.84448242 37.96801758 C-37.84289124 37.10801147 -37.84130005 36.24800537 -37.83966064 35.36193848 C-37.58569336 33.2746582 -37.58569336 33.2746582 -35.58569336 31.2746582 C-32.6965332 31.04760742 -32.6965332 31.04760742 -29.04663086 31.0793457 C-27.09370117 31.08901367 -27.09370117 31.08901367 -25.10131836 31.09887695 C-23.7211074 31.11558891 -22.34089907 31.13251882 -20.96069336 31.1496582 C-19.57267884 31.15968814 -18.18465747 31.16881397 -16.79663086 31.17700195 C-13.3928131 31.20063958 -9.9893383 31.23358953 -6.58569336 31.2746582 C-6.59616699 30.40663574 -6.60664063 29.53861328 -6.61743164 28.64428711 C-6.65149052 25.42766292 -6.67658103 22.21113053 -6.69555664 18.99438477 C-6.70562213 17.60145039 -6.7192757 16.20853718 -6.73657227 14.81567383 C-6.76079556 12.81511461 -6.7711015 10.81440205 -6.78100586 8.8137207 C-6.79147949 7.60925293 -6.80195313 6.40478516 -6.81274414 5.16381836 C-6.43027153 0.29695726 -4.36016204 0.02393753 0 0 Z M2.41430664 9.2746582 C2.1647291 18.39914691 2.1647291 18.39914691 1.9362793 27.52416992 C1.90066895 28.65612793 1.86505859 29.78808594 1.82836914 30.9543457 C1.78123779 32.69820557 1.78123779 32.69820557 1.7331543 34.47729492 C1.41430664 37.2746582 1.41430664 37.2746582 -0.58569336 39.2746582 C-3.38305664 39.59350586 -3.38305664 39.59350586 -6.90600586 39.6887207 C-8.03796387 39.72433105 -9.16992188 39.75994141 -10.33618164 39.79663086 C-12.50156494 39.84762939 -12.50156494 39.84762939 -14.71069336 39.8996582 C-19.28944336 40.0234082 -23.86819336 40.1471582 -28.58569336 40.2746582 C-28.58569336 51.8246582 -28.58569336 63.3746582 -28.58569336 75.2746582 C-18.68569336 75.6046582 -8.78569336 75.9346582 1.41430664 76.2746582 C1.74430664 86.1746582 2.07430664 96.0746582 2.41430664 106.2746582 C13.96430664 106.2746582 25.51430664 106.2746582 37.41430664 106.2746582 C37.70361974 96.77591173 37.70361974 96.77591173 37.98242188 87.27685547 C38.02052979 86.10179443 38.0586377 84.9267334 38.09790039 83.71606445 C38.13455811 82.50635986 38.17121582 81.29665527 38.20898438 80.05029297 C38.41430664 77.2746582 38.41430664 77.2746582 39.41430664 76.2746582 C41.55817321 76.11606978 43.70697502 76.02336522 45.85571289 75.95825195 C47.03077393 75.92014404 48.20583496 75.88203613 49.41650391 75.84277344 C50.92140381 75.79967041 52.42630371 75.75656738 53.97680664 75.7121582 C58.74118164 75.5677832 63.50555664 75.4234082 68.41430664 75.2746582 C68.41430664 63.7246582 68.41430664 52.1746582 68.41430664 40.2746582 C59.28981793 40.02508066 59.28981793 40.02508066 50.16479492 39.79663086 C48.46685791 39.74321533 48.46685791 39.74321533 46.73461914 39.6887207 C44.99075928 39.64158936 44.99075928 39.64158936 43.21166992 39.59350586 C40.41430664 39.2746582 40.41430664 39.2746582 38.41430664 37.2746582 C38.09545898 34.47729492 38.09545898 34.47729492 38.00024414 30.9543457 C37.94682861 29.25640869 37.94682861 29.25640869 37.89233398 27.52416992 C37.85833496 26.08058105 37.82433594 24.63699219 37.78930664 23.1496582 C37.66555664 18.5709082 37.54180664 13.9921582 37.41430664 9.2746582 C25.86430664 9.2746582 14.31430664 9.2746582 2.41430664 9.2746582 Z " fill="#F9FDFD" transform="translate(222.585693359375,164.725341796875)"/>
<path d="M0 0 C12.47261325 5.77549579 20.31507923 10.7795807 25.40820312 24.05615234 C27.88702017 32.19820733 26.85917542 41.21452039 23.2734375 48.84375 C20.3380113 53.81416492 17.32795508 57.61160634 12 60 C12.144375 59.42636719 12.28875 58.85273438 12.4375 58.26171875 C15.12023712 45.98447041 16.480393 31.25389677 10 20 C10.16081055 20.71607422 10.32162109 21.43214844 10.48730469 22.16992188 C12.8384973 35.14850511 11.66616469 49.42486516 8 62 C7.64243676 63.99581052 7.30278558 65.99514789 7 68 C6.01 67.67 5.02 67.34 4 67 C4.13019531 66.20335937 4.26039063 65.40671875 4.39453125 64.5859375 C5.38488718 58.71463708 5.38488718 58.71463708 4.05859375 53.11328125 C2.7561515 51.69420238 1.37757395 50.34626545 0 49 C-4.9454875 38.93240045 -4.73374415 29.15421096 -1.4375 18.5 C0.4363892 12.34163597 0.27399549 6.38308008 0 0 Z " fill="#4DB94B" transform="translate(445,237)"/>
<path d="M0 0 C5.36786119 0.04818547 8.59647478 2.59647478 12.3125 6.3125 C12.125 9.8125 12.125 9.8125 11.3125 13.3125 C10.3225 13.9725 9.3325 14.6325 8.3125 15.3125 C9.9625 16.9625 11.6125 18.6125 13.3125 20.3125 C12.9825 21.3025 12.6525 22.2925 12.3125 23.3125 C9.09397169 22.68184243 6.80448931 21.53229305 4.0625 19.75 C3.35609375 19.29496094 2.6496875 18.83992188 1.921875 18.37109375 C1.39078125 18.02175781 0.8596875 17.67242187 0.3125 17.3125 C0.3125 19.2925 0.3125 21.2725 0.3125 23.3125 C-1.3375 22.9825 -2.9875 22.6525 -4.6875 22.3125 C-4.71637814 18.83335059 -4.73425687 15.35423169 -4.75 11.875 C-4.75837891 10.88177734 -4.76675781 9.88855469 -4.77539062 8.86523438 C-4.77861328 7.92099609 -4.78183594 6.97675781 -4.78515625 6.00390625 C-4.79039307 5.12935791 -4.79562988 4.25480957 -4.80102539 3.35375977 C-4.60073764 -0.24754318 -3.76620374 0.31916981 0 0 Z " fill="#EEF9FB" transform="translate(247.6875,208.6875)"/>
<path d="M0 0 C0.99 0.33 1.98 0.66 3 1 C3.06058594 2.04800781 3.12117187 3.09601563 3.18359375 4.17578125 C3.26801738 5.55470048 3.35266447 6.93360605 3.4375 8.3125 C3.47681641 9.00279297 3.51613281 9.69308594 3.55664062 10.40429688 C3.74927415 13.47161535 4.02322717 16.06968152 5 19 C6.65 19 8.3 19 10 19 C12.83374078 13.33251843 13.63223832 8.30267439 14 2 C15.32 1.67 16.64 1.34 18 1 C18.90473113 15.31485702 18.90473113 15.31485702 14.2890625 21.64453125 C12.09813882 23.9483207 10.86580169 24.00994062 7.625 24.25 C3.85724926 23.99015512 2.5729057 23.67186361 0 21 C-1.29521242 17.11436275 -1.14503464 13.42199731 -1.125 9.375 C-1.12886719 8.58609375 -1.13273438 7.7971875 -1.13671875 6.984375 C-1.12665394 1.12665394 -1.12665394 1.12665394 0 0 Z " fill="#F3FBFD" transform="translate(222,209)"/>
<path d="M0 0 C0.99 0 1.98 0 3 0 C3.8393758 3.10256512 4.6704505 6.20729444 5.5 9.3125 C5.73847656 10.19357422 5.97695313 11.07464844 6.22265625 11.98242188 C6.44824219 12.82998047 6.67382812 13.67753906 6.90625 14.55078125 C7.11572266 15.33106689 7.32519531 16.11135254 7.54101562 16.9152832 C8 19 8 19 8 22 C6.68 22 5.36 22 4 22 C3.34 20.35 2.68 18.7 2 17 C-0.64 16.67 -3.28 16.34 -6 16 C-6.66 17.98 -7.32 19.96 -8 22 C-9.32 22 -10.64 22 -12 22 C-10.70205295 14.03088427 -5.6980145 5.71358285 0 0 Z " fill="#EDF9FB" transform="translate(275,210)"/>
<path d="M0 0 C0 1.65 0 3.3 0 5 C-1.32 5 -2.64 5 -4 5 C-6.54713404 5.00922702 -6.54713404 5.00922702 -9 6 C-11.5 8.66666667 -11.5 8.66666667 -13 12 C-12.87754191 14.79561167 -12.87754191 14.79561167 -12 17 C-10.39125 16.7525 -10.39125 16.7525 -8.75 16.5 C-5 16 -5 16 -1 16 C-1.32987639 18.47407292 -1.57972087 19.6637767 -3.5625 21.25 C-7.10634512 22.34041388 -10.33772758 22.72044703 -14 22 C-17.2336123 19.33226985 -17.89820508 17.69984008 -18.5 13.5625 C-17.90757585 9.34147791 -16.64696004 7.30870005 -14 4 C-13.401875 3.236875 -12.80375 2.47375 -12.1875 1.6875 C-8.38483626 -1.24598345 -4.47079262 -1.49026421 0 0 Z " fill="#F3FBFD" transform="translate(219,210)"/>
<path d="M0 0 C3.68754757 0.49831724 5.60490662 1.10067643 8 4 C7.67 4.99 7.34 5.98 7 7 C4.69 7.33 2.38 7.66 0 8 C0 5.36 0 2.72 0 0 Z " fill="#56C9DD" transform="translate(248,213)"/>
<path d="M0 0 C-0.53890869 0.2266333 -1.07781738 0.4532666 -1.63305664 0.68676758 C-4.10964001 1.72843548 -6.58607092 2.77046536 -9.0625 3.8125 C-9.91005859 4.16892578 -10.75761719 4.52535156 -11.63085938 4.89257812 C-16.42798795 6.91144691 -21.21886709 8.94352899 -26 11 C-25.453125 9.1953125 -25.453125 9.1953125 -24 7 C-21.56359608 5.78179804 -19.29277095 4.79742555 -16.75 3.875 C-16.09386719 3.62363281 -15.43773437 3.37226562 -14.76171875 3.11328125 C-12.84849052 2.38678703 -10.92605277 1.69163725 -9 1 C-7.91203125 0.59007813 -6.8240625 0.18015625 -5.703125 -0.2421875 C-3 -1 -3 -1 0 0 Z " fill="#6DC45F" transform="translate(185,65)"/>
<path d="M0 0 C2.08304538 -0.05418326 4.16649768 -0.09287551 6.25 -0.125 C7.99023438 -0.15980469 7.99023438 -0.15980469 9.765625 -0.1953125 C12.82786046 -0.0103949 14.44202751 0.39176977 17 2 C17 2.33 17 2.66 17 3 C13.7 3 10.4 3 7 3 C7 2.34 7 1.68 7 1 C4.69 1 2.38 1 0 1 C0 0.67 0 0.34 0 0 Z " fill="#D1EDD4" transform="translate(463,336)"/>
<path d="M0 0 C2 1 2 1 2.62109375 2.640625 C3.11285402 5.70271988 3.0935003 8.64996953 3.0625 11.75 C3.05347656 12.92046875 3.04445313 14.0909375 3.03515625 15.296875 C3.02355469 16.18890625 3.01195313 17.0809375 3 18 C2.67 18 2.34 18 2 18 C1.67 15.36 1.34 12.72 1 10 C0.67 10 0.34 10 0 10 C0 6.7 0 3.4 0 0 Z " fill="#D0EDD1" transform="translate(93,88)"/>
<path d="M0 0 C0.33 0 0.66 0 1 0 C1 4.29 1 8.58 1 13 C0.01 12.34 -0.98 11.68 -2 11 C-1.85892253 9.54119891 -1.71197585 8.08296449 -1.5625 6.625 C-1.48128906 5.81289063 -1.40007812 5.00078125 -1.31640625 4.1640625 C-1 2 -1 2 0 0 Z " fill="#E6F5E4" transform="translate(145,48)"/>
<path d="M0 0 C0.99 0 1.98 0 3 0 C2.67 2.64 2.34 5.28 2 8 C1.01 7.67 0.02 7.34 -1 7 C-0.67 4.69 -0.34 2.38 0 0 Z " fill="#5BC061" transform="translate(450,297)"/>
</svg>
